DataType=double
version=3
OpenSimVersion=4.5-2023-11-26-efcdfd3eb
endheader
time	EMG01_right_gast_med	EMG02_right_glut_max	EMG03_left_gast_med	EMG04_left_glut_max	EMG05_right_glut_med	EMG06_right_bic_fem	EMG07_right_rect_fem	EMG08_right_vast_lat	EMG09_right_vast_med	EMG10_right_tens_fasc_lat	EMG11_left_glut_med	EMG12_left_bic_fem	EMG13_left_rect_fem	EMG14_left_vast_lat	EMG15_left_vast_med	EMG16_left_tens_fasc_lat
2.25	11.02735687420067	21.20332477992429	110.2415251594527	18.28856092870614	52.67837970139841	58.37503955249854	6.638690333836669	5.991091528752291	47.16638026583912	20.76244081597313	6.63954682640431	4.263690500424244	9.243385261145589	7.901969453131286	10.46001170124902	13.09634792659506
2.26	11.814701156258	21.80576817916718	106.0883841961734	20.50694735424661	57.34490131455195	57.19811732406443	6.918864008132243	6.383909062296167	50.86380066352367	21.87581412467145	6.404451812995332	4.111427804669365	9.05946422659094	8.192624571932468	11.08926567272503	11.70607646513766
2.27	12.68012788616549	22.46164935206239	101.5199890869821	22.9774200871555	61.93297852607915	55.85742644972588	7.185030892395438	6.781779425808888	54.5254338183281	23.09927559344021	6.175892365948233	3.93676689905221	8.854744455906278	8.469401541661753	11.75470429138452	10.61607537624708
2.28	13.62799948119867	23.15614785453727	96.58040368170526	25.6875777269697	66.38801003574839	54.37014601666114	7.434414345926806	7.179968888399265	58.11612607472702	24.41488263959405	5.953116046995082	3.741946581775815	8.630490365734865	8.730071749149616	12.44181537550609	9.830556052358741
2.29	14.66219018118529	23.87417284162312	91.31841724180448	28.62175117004944	70.65893174050169	52.75475270967785	7.664448067517895	7.573798702805352	61.60085134384317	25.80367114482238	5.735445217422402	3.52954978338681	8.388119234346656	8.972542955393463	13.13648606156258	9.35116562880841
2.3	15.78607047225116	24.60059873863563	85.78650662999289	31.76102231391207	74.69873205054446	51.03075291615222	7.87280561870852	7.958697353209923	64.94517284772557	27.24594582289572	5.522287722054391	3.302471071173442	8.12918912319515	9.194860746676486	13.82512405815502	9.176997804719489
2.31	17.00249549128942	25.32049486162455	80.03977163031668	35.08330193223439	78.46491417643321	49.21841237950738	8.057426958687397	8.330252134451918	68.11570377864072	28.72157664129158	5.313148149819686	3.063882876627655	7.855386622427617	9.39521503597493	14.49477461995641	9.304625281279748
2.32	18.31379463274855	26.01934529877219	74.13487399494302	38.56346963958578	81.91989791354818	47.33848808294866	8.216542009580932	8.684259629734516	71.08055865036604	30.21029659887192	5.1076394149515	2.817200676347436	7.568514111921512	9.571952106251397	15.13323358389813	9.728152734592131
2.33	19.72175937693043	26.6832561066558	68.12900720957427	42.17357756731618	85.03135207943141	45.41196605895992	8.348691283805069	9.016774534586546	73.80978808686055	31.69199617352021	4.905494434576052	2.566047349841959	7.270476419216311	9.723592304530746	15.72915660576274	10.4392893567098
2.34	21.22762633620737	27.29914742321998	62.07891989439999	45.88311805554633	87.77244860930821	43.45980748804286	8.452743523642775	9.324156126455298	76.27579098778821	33.14700956822937	4.706577728420033	2.31421691390133	6.963266968292726	9.848853152603011	16.27216448904292	11.42744014419906
2.35	22.83205283457852	27.85492829920953	56.04001141119628	49.65935434045834	90.12203171399874	41.50270433359645	8.527910224065494	9.60311159566586	78.4536986727669	34.55638745607213	4.510896795532776	2.065637772195593	6.648953670497139	9.946677369928496	16.75294420714474	12.67981524473704
2.36	24.53508313975883	28.33965197562493	50.06551395472177	53.46771185862361	92.06470008503817	39.56084505295389	8.573756855284403	9.85073549718668	80.32172548816841	35.90215059392008	4.318613106610649	1.82433553236616	6.329664884193575	10.01626510332125	17.16334488439212	14.1815567294952
2.37	26.33610473372747	28.74364923693088	44.20577142716358	57.27222630824078	93.59080496800934	37.65369055703642	8.59021052241455	10.06454474380396	81.86147976475999	37.16751898844277	4.130052493161442	1.594395358341328	6.007575784100995	10.05710948025554	17.49646762289026	15.91588210116503
2.38	28.23379558641421	29.05863757197906	38.50762182794416	61.03604285253239	94.69637014760224	35.79976059183781	8.577563697601841	10.2425087350221	83.0582283412883	38.33711264382931	3.945714637058755	1.37992376948296	5.684895460661523	10.06903441695315	17.74674765766044	17.86424371561413
2.39	30.22606499690024	29.27780427374615	33.01388673556283	64.72195877777047	95.38294090490332	34.01643116898912	8.536473627048432	10.38307428323778	83.90110759351671	39.39712219003777	3.76628127853168	1.18500979149044	5.363855004448315	10.05223344702716	17.91002690653945	20.00650318367931
2.4	32.30999172993219	29.39586234829788	27.76296869245027	68.29299969539332	95.65736843194543	32.31974444128313	8.467957125138541	10.48518492068403	84.38327454885203	40.33545019967866	3.592622669411014	1.013685410944758	5.046696702935097	10.0073082165254	17.98361457859039	22.32111979842124
2.41	34.48176360797316	29.40907913697241	22.78855490684901	71.71301724861098	95.531535180765	30.7242331848477	8.373380671318317	10.54829395918095	84.50199329377342	41.14182588336713	3.425801712803819	0.8698853634425291	4.735664310737233	9.935305164344332	17.96633321142794	24.7853521168343
2.42	36.73662261323438	29.31527862849235	18.11942361544278	74.94729435327983	95.02202626886655	29.24276257570619	8.254445887216917	10.57237036327813	84.25865408640072	41.80789665923347	3.267075167904465	0.7574063639952546	4.432994197371811	9.837748683465279	17.85854747031564	27.37547192429595
2.43	39.06881927483445	29.1138192659276	13.77934767254559	77.96314222716111	94.14975289968602	27.88639212810515	8.113170498658793	10.55789622391714	83.65872494468391	42.32729992383513	3.117891259395685	0.6798659572365432	4.140907056802277	9.716668706086976	17.66217332230112	30.06698971829408
2.44	41.47157968318798	28.80554958599096	9.787088472074542	80.73047189886283	92.93953549804786	26.66426045882126	7.951864810911188	10.50585463396177	82.71163746316223	42.69571747651518	2.979883011218037	0.6406612283185683	3.861599790295399	9.574620246267735	17.38066574804719	32.8348903981532
2.45	43.93708763326752	28.39274429468694	6.156472211860679	83.22232194669462	91.41965584931735	25.58349503142609	7.773103663343347	10.41770722245553	81.43060956412046	42.91091368208588	2.854856662017515	0.6429276691413613	3.597237160125552	9.414692137356733	17.018983903605	35.65387704971644
2.46	46.45648306827752	27.87902330394654	2.896539749127433	85.41532444788986	89.62138791854295	24.6491484101781	7.579693866670397	10.29536138013895	79.8324078812669	42.97275683775712	2.744774676791075	0.6894985301403864	3.349942861119435	9.240502230246916	16.5835334722527	38.49861966356367
2.47	49.01987644544761	27.26925586795603	0.01176079012637197	87.29009262526515	87.57851621032381	23.86416199563113	7.374637251066391	10.1411280177843	77.93705266027918	42.88322159419682	2.651733150215369	0.782865015075545	3.121789741575722	9.056176816593904	16.08208663585421	41.34400441317388
2.48	51.61637734261973	26.56945156056939	-2.497697143610838	88.83151614774044	85.32684937294788	23.2293577804598	7.161089628054625	9.957671313544495	75.76746957199352	42.64636886115013	2.577933728140795	0.9251377204070539	2.914788977349773	8.866312983479917	15.5236805318991	44.16537796880382
2.49	54.2341349712958	25.78663964743975	-4.635654639036617	90.02895352519751	82.90373574096783	22.74345831607561	6.942316182909418	9.747952232056075	73.34909547795726	42.26829862717222	2.525650482460128	1.118009794489189	2.730878048760084	8.675923776663826	14.9184953768167	46.93878067692557
2.5	56.8603884020467	24.92873838004781	-6.40957081729747	90.87631597398725	80.34758645251955	22.40313474989403	6.721644025614526	9.51516765496747	70.709447642269	41.7570708878149	2.497192432591096	1.362722383414995	2.571907413860583	8.49036716009357	14.2777137810752	49.64116270421704
2.51	59.48152510642283	24.00441580174041	-7.830167689392715	91.37204326667657	77.69741059475977	22.20308237878187	6.50241275295689	9.262686865490071	67.8776672139994	41.12259066936571	2.494862592211764	1.660033016958056	2.439625825883612	8.315260647892172	13.61336310369371	52.25057853623008
2.52	62.08314748364241	23.02294381777604	-8.911037555362482	91.51897819457648	74.99236581938101	22.1361225897335	6.287923893965969	8.993987030736223	64.88404823946665	40.37645484721839	2.520914505029954	2.010187646796282	2.335664296916356	8.156384154939664	12.93814287901215	54.7463573469191
2.53	64.65014771420411	21.99404745311815	-9.668242081278205	91.32415109170131	72.2713271611959	22.1933294287483	6.081390103901236	8.712589299704304	61.75956350698847	39.53176071547053	2.577507217658593	2.412897064741736	2.261518771232373	8.01957407116088	12.26523946456667	57.10924917496868
2.54	67.16679102870685	20.92775128990755	-10.11991102873192	90.7984886401442	69.57247614791791	22.36417863005402	5.885884999424406	8.421997122336775	58.53539812900465	38.60287867391846	2.666659554566761	2.867318403446638	2.21853166594253	7.910611758759998	11.60813027210442	59.3215486605655
2.55	69.61680658472366	19.8342251370414	-10.28584781281368	89.95646172602315	66.9329114646595	22.63671692658467	5.704294563346438	8.125638285248405	55.24250074566989	37.60519357357289	2.790204454627344	3.372042375019061	2.207872559897086	7.835109595228129	10.98038026571062	61.36719876209479
2.56	71.98348473893999	18.7236311820058	-10.18714820078096	88.81568606441573	64.3882814952272	22.99774970007901	5.539271041145345	7.826811925855272	51.91116083997201	36.55482093130545	2.949744043329678	3.925086851298169	2.230518416914417	7.798397435870625	10.39543370688579	63.23187679995374
2.57	74.24978051628354	17.60597511467369	-9.845837583841753	87.39648782742734	61.97243831112517	23.43304515483955	5.393190204188326	7.528641505062794	48.5706192922973	35.46830539893467	3.146606084845498	4.523897332040693	2.287233774872912	7.805412078089582	9.866404321687561	64.90306507427026
2.58	76.39842526968549	16.49096380758072	-9.284531356994792	85.72144547033535	59.71711241519132	23.92755298896061	5.268112802413619	7.234034461252619	45.24871801556577	34.36230965317625	3.381802501274501	5.165354769636811	2.378551328975163	7.860592058036958	9.405867177510366	66.37010822936344
2.59	78.41205078952397	15.38787209437429	-8.5261220082624	83.81491857540151	57.65160781810938	24.46563507506056	5.165750984345106	6.945649030366559	41.97159305221822	33.25330220624608	3.655990742899349	5.845791115792188	2.504753338650852	7.967779908787053	9.02565558802112	67.62425912980842
2.6	80.27333152024754	14.3054211119683	-7.5934955646481	81.70257459203758	55.80251747585107	25.0313051401517	5.087440403432171	6.665868460525295	38.76341382998694	32.15725244848753	3.969438888651899	6.561012839220419	2.665854333231838	8.130133832281107	8.736666296016514	68.65871419919469
2.61	81.96515062481548	13.2516705356672	-6.509279116518353	79.41092436863333	54.19345927598415	25.60847393940631	5.034118637171228	6.396782569627384	35.64616968684118	31.0893406178246	4.321995397611186	7.306332544240665	2.861585665736473	8.350050576062136	8.548676032469425	69.46863817246411
